<svg width="264" height="41" fill="none" xmlns="http://www.w3.org/2000/svg"><path d="M81.544 16.803c.124 0 .161.037.234.14v14.311l.014-.007c.103.817.681 1.606 1.523 1.724 2.116.294 3.456-1.702 3.602-3.617.19-2.387.19-6.658-.015-9.037-.117-1.326-.46-2.46-1.976-2.535l-.103-.581c1.354-.067 2.79.088 4.137 0 .856-.052 1.727-.376 2.554-.317v14.26c0 .338.345 1.355.58 1.628.54.618 1.91.346 1.44 1.17-2.195 0-4.391-.102-6.558.303l-.154-.229.08-2.18c-.256-.25-.82.877-.988 1.054-2.174 2.29-7.716 2.341-8.58-1.37-.864-3.713.198-8.287-.285-11.918-.088-.633-.403-1.34-1.026-1.598-.402-.17-.958-.015-1.039-.634.095-.154.205-.147.359-.17 1.222-.14 2.694.111 3.975 0 .608-.05 1.743-.412 2.226-.397z" fill="#fff"/><path fill-rule="evenodd" clip-rule="evenodd" d="M206.957 16.7c6.918-.552 9.341 4.243 8.792 10.533-.468 5.384-4.349 7.873-9.525 7.085-5.175-.788-6.72-5.487-6.237-10.319.425-4.257 2.577-6.945 6.97-7.292V16.7zm.725.619l.007.007c-.527.052-1.186.612-1.501 1.024-1.816 2.401-1.699 10.592-.593 13.331 1.105 2.74 3.448 2.762 4.546-.095 1.098-2.858 1.069-9.914-.22-12.573-.402-.825-1.251-1.797-2.239-1.694zM150.989 16.663c4.085-.272 6.479 1.989 6.742 6.047.022.36.095.95-.154 1.208h-8.784l-.154.155v2.63l-.014.014.131.92c.652 3.75 4.473 5.599 7.409 2.763.432-.42.973-1.886 1.456-.847-.988 2.666-3.06 4.743-6.01 4.89-4.326.214-7.203-2.482-7.774-6.695-.718-5.266 1.207-10.687 7.152-11.085zm2.65 5.009c-.102-1.488-.659-5.03-2.899-4.184-1.164.442-1.815 2.666-1.991 3.786-.051.331-.278 1.93.022 2.026h4.714c.249-.368.191-1.157.154-1.628zM130.081 8.576c.541.015.358.258.358.479v10.141l.388-.014c1.267-2.313 4.459-3.115 6.816-2.033 4.737 2.173 4.568 11.6 1.515 15.1-1.808 2.076-5.358 2.769-7.862 1.7-.534-.227-.747-.603-1.332-.654a5.486 5.486 0 00-2.46.375c-.388.154-1.501 1.046-1.786.611-.154-.236.109-1.178.116-1.554.249-6.923-.197-14.002 0-20.94-.095-.714-.307-1.68-1.002-2.04-.301-.155-1.091-.074-1.091-.486 0-.655 1.427-.265 1.83-.258.776.015 1.94-.051 2.731-.103.512-.037 1.398-.339 1.779-.324zm3.352 9.494c-1.647.037-2.883 1.745-3.008 3.285-.293 3.572.205 7.527 0 11.144.564 1.34 2.884 1.561 3.968.744 2.393-1.805 2.196-8.927 1.75-11.652-.249-1.495-.857-3.565-2.716-3.528l.006.007z" fill="#fff"/><path d="M251.98 22.386c-1.091-4.942 4.444-6.643 8.236-5.23.388.148 1.449.818 1.727.79.513-.053.535-.951.711-1.135l-.008-.008c.213-.228.681-.125.696.228 0 .133-.095.34-.103.53-.014 1.032-.059 2.034-.102 3.05-.015.376.285 2.29-.52 1.797-.168-.103-.513-1.848-.681-2.26-.286-.708-.813-1.577-1.42-2.04-1.728-1.334-4.664-.833-4.386 1.782.323 3.02 7.417 4.831 7.841 9.051.476 4.714-5.066 6.445-8.748 5.016-.432-.17-1.655-.928-1.984-.95-.688-.044-.608 1.524-1.405 1.2-.279-.198-.001-1.354.014-1.686.044-1.561-.081-3.145.044-4.692.102-.147.534-.154.644 0 .271 1.827.835 4.441 2.57 5.414 1.589.89 3.975.508 4.07-1.672.168-3.757-6.377-5.488-7.196-9.185zM187.264 17.09c.329-.036 1.756-.037 1.976.103l4.202 12.006.256-.265c.454-2.107 1.392-4.095 1.919-6.172.381-1.525.827-3.75-.901-4.626-.359-.184-1.691-.317-1.281-.935.154-.228.359 0 .425 0h5.227c.739.22-.57.927-.674 1.009-.761.633-1.076 1.451-1.42 2.357-.893 2.357-1.545 5.03-2.321 7.446a190.116 190.116 0 01-2.02 5.967c-.491.022-1.867.235-2.138-.162L186.4 22.593l-.337-.347-3.368 11.498c-.132.456-1.925.338-2.13.191-.124-.089-.234-.383-.307-.537-1.97-4.412-3.126-9.7-5.023-14.2-.197-.274-.329-.672-.571-.9-.468-.441-1.324-.258-1.156-1.097h8.785l-.095.589c-.813.147-2.079-.059-1.889 1.15l2.818 9.162.374.36 3.411-11.195c.074-.162.198-.154.352-.176z" fill="#fff"/><path d="M167.051 18.32c.871-1.067 2.526-1.782 3.902-1.642 3.316.34 3.433 5.716-.008 5.775-2.833.051-3.059-3.19-1.09-4.567.014-.434-1.383.14-1.552.221-1.113.553-1.743 1.827-2.058 2.983l-.021 10.554c.256.899.703 1.223 1.566 1.474.367.103 1.735.133 1.391.707l-9.576.162c-.197-.133-.285-.368-.168-.59 1.545-.294 1.94-.67 2.05-2.246.212-3.027.212-7.815 0-10.85-.052-.736-.205-1.848-.915-2.231-.425-.228-1.31-.088-1.164-.685.11-.45 1.135-.118 1.515-.118.798 0 1.816 0 2.599-.059.542-.037 2.13-.42 2.489-.302.073.023.124.081.176.14v2.364h.007c.161.184.755-.964.857-1.09zM102.035 19.197c1.691-3.182 8.155-3.756 9.048.317.285.191.74-.759.945-.994 1.888-2.232 7.013-2.777 8.484.08 1.077 2.092.315 9.42.498 12.227.103 1.51.337 2.475 2.079 2.482.169.376.22.567-.241.619-1.486.176-3.536-.14-5.132-.118-.454 0-2.62.302-2.826.015v-.435c1.12-.257 1.42-.707 1.523-1.834.337-3.639-.249-7.778 0-11.468-.703-3.925-5.052-1.385-5.125 1.473.19 3.16-.271 6.644.015 9.774.058.656.168 1.392.797 1.724.425.22 1.318.125 1.084.795l-8.053.06c-.278-.715.44-.59.82-.789.483-.25.623-.987.732-1.473-.175-3.668.271-7.616.015-11.254-.293-4.22-4.715-1.967-4.913.964.227 3.285-.344 7.064 0 10.29.103.972.506 1.598 1.509 1.738v.435l-8.17.11c-.425-.773.16-.56.585-.685.805-.236 1.23-.493 1.34-1.384-.198-3.867.3-8.058.015-11.88-.095-1.312-.542-2.012-1.889-2.204-.322-.876.08-.589.57-.574 1.926.044 3.91.089 5.777-.405l.242.14v2.107l.007-.008.264.155zM238.67 8.575v15.83c.001.037.118.17.118.25l.139.014c.256-.073.542-.073.791-.162.674-.244 3.975-3.528 4.275-4.22.446-1.038-.022-1.797-1.003-2.217-.337-.14-1.091-.228-1.238-.339-.256-.191-.117-.589.132-.619.095-.007.161.088.19.089h7.007l.161.265c.044.45-1.061.64-1.472.84-.71.346-1.647 1.097-2.247 1.627-.344.302-2.343 2.313-2.35 2.579l5.373 9.118c.264.346.549.847.849 1.149.366.368 1.055.464.777 1.141h-7.505l-.029-.47.857-.436.014-.743c-1.2-1.827-2.064-4.192-3.265-5.974-.307-.457-.805-.906-1.398-.898-.139.03-.168.456-.176.582-.08 1.141-.153 5.398.139 6.29.198.604.557.802 1.121.979.388.125.915-.103.695.582l-8.587.11c-.491-.765.22-.566.666-.714.937-.309 1.171-.663 1.274-1.665-.308-6.444.41-13.28 0-19.68-.059-.891-.249-1.826-1.157-2.202-.425-.177-1.501-.184-.681-.788 1.333-.074 2.76.095 4.085 0 .825-.06 1.621-.367 2.445-.318z" fill="#fff"/><path d="M224.753 19.403c.901-1.878 3.229-3.285 5.301-2.541 3.001 1.068 2.196 6.438-1.56 5.465-1.449-.375-1.778-1.686-1.391-3.02l1.098-1.576c-2.049-.051-3.506 2.063-3.66 3.94-.263 3.11.183 6.615.029 9.768.242 1.583 1.589 1.73 2.907 1.914l.102.582-9.655-.015-.162-.154.037-.368c1.171-.25 1.881-.398 2.035-1.739.417-3.69-.293-8.116.015-11.888-.154-1.134-.74-1.98-1.977-1.959l-.117-.442c.066-.177.205-.162.352-.177 1.207-.14 2.693.118 3.974 0 .688-.059 1.442-.228 2.116-.397.11-.03.344.205.344.243 0 .633-.007 1.26 0 1.893h.008c0 .155-.205.53.204.47zM55.98 10.999c.505-.287 1.01-.022 1.493-.007 2.357.058 4.868.051 7.225 0 .49-.015 1.603-.442 1.464.42-.944.427-2.02.051-2.438 1.23-.182.5-.087 1.046-.234 1.554.234 5.502-.307 11.262 0 16.734.03.48.096 1.502.381 1.827.608.7 3.067.567 3.953.42 2.577-.428 4.122-2.91 4.825-5.245.102-.338.307-1.753.41-1.9.124-.17.592-.17.666.073.11 1.054-.103 2.1-.096 3.145 0 .907.067 2.012.11 2.94.015.39.228 1.148.206 1.487 0 .096-.088.25-.154.25H55.965l.095-.589c1.727-.08 2.204-.486 2.313-2.194.374-5.812-.278-12.028-.014-17.883-.176-1.518-1.018-1.562-2.336-1.739l-.043-.523zM238.678 8.576h-.008v-.007l.008.007z" fill="#fff"/><path d="M26.3 21.768c.06.067.198.074.242.125l.008.008c.095.11.073.31.146.434 1.837 3.042 1.998 7.064.893 10.51-.124.384-.468.944-.578 1.201-.813 2.004-1.662 3.477-3.229 5.127-.11.118-.168.464-.527.567-2.335.368-4.707-.11-7.035.125-.058-.235.212-.302.366-.412.85-.611 1.896-1.112 2.789-1.797 2.116-1.635 4.59-4.258 5.498-6.813.33-.936.527-3.624.337-4.604-.051-.273-.52-1.156-.608-1.495a2.133 2.133 0 01-.022-.611l1.72-2.364zM29.815 39.659l-.052.214c-.095-.008-.175-.11-.205-.11-1.303 0-2.686-.067-3.974 0 0 0-.11.095-.206.11l-.051-.214c.08 0 .154-.015.205-.081.227-.295 1.47-2.09 1.632-2.129l2.65 2.21z" fill="#2B8B43"/><path d="M23.687.003c.147.03 1.94 1.783 2.16 2.04 2.533 2.969 2.87 6.357 2.819 10.099 0 .331-.125 1.79.256 1.73.3-.205.578-.441.863-.662h-.007c1.977-1.525 4.21-3.72 4.898-6.07.505-.721.234-1.966.688-2.68l2.716.059c-.19.603-.037 1.237-.117 1.833-1.113 8.507-12.731 11.181-15.491 18.82-.732 2.032-.923 3.932-.337 6.068.08.302.03.59.242.884l-2.175 2.63c-.03.103-.205.095-.263.073-.125-.06-.637-1.73-.871-1.966-.806-4.405.132-9.48 2.943-12.934.68-.832 3.199-2.873 3.463-3.624.11-.302.014-.582.08-.87.915-3.947.893-8.432-1.75-11.65-.373-.457-1.09-1.209-1.618-1.37-.205-.23 1.179-1.902 1.252-2.262.066-.081.132-.17.25-.148z" fill="#2B8B43"/><path d="M40.796 9.711c.446-.228.79.133 1.135.236.263.074.512.08.82.177l-.008.014c.001.005.031.14.118.162.132.037.746 0 .76.17-.087.213-.087.457-.153.678-.366 1.141-.944 2.393-1.457 3.373-1.127 2.195-2.599 4.184-4.458 5.826l-.095.368c.315.059.52.288.827.383 1.054.317 1.97.56 2.928 1.053 1.515.774 3.617 2.343 4.81 3.683.08.088.19.11.066.258-.468.258-1.37 1.466-1.728 1.628-.33.147-.578-.36-.812-.582-2.614-2.372-4.576-3.366-8.017-3.904-.38-.059-.878-.294-1.288-.28-.264.015-.506.361-.725.479-1.076.582-2.153.987-3.273 1.444-.146.059-.526.485-.746.317l-.783-2.373-.257-.264c0-.236 2.138-.988 2.497-1.172 4.422-2.276 7.68-5.914 9.459-10.584.131-.338.058-.744.38-1.09zM3.818 9.682c.052.014.17.228.345.287 1.852.67 3.58 1.186 5.22 2.38v-.008c1.339.98 2.84 2.718 3.638 4.184.695 1.288 1.186 2.945 1.325 4.448.015.191.11.87.19.972l3.66 1.576.096.288c-.395.338-.33.707-.432 1.141-.03.11-.147.214-.176.354-.059.294.125.678-.16.891-.191.06-1.019-.56-1.231-.656-2.877-1.31-7.233-2.415-10.578-1.966-.864.118-2.27.42-3.105.67-.22.067-1.603.656-1.661.59.087-.354-.176-.48-.286-.715-.16-.346-.264-.84-.403-1.178-.066-.163-.387-.244-.204-.531.117-.074.256-.214.373-.258 1.889-.714 5.944-1.59 7.994-1.421.513.044 2.892.692 3.148.324.22-.59-.051-.928-.197-1.392-.572-1.782-1.399-3.24-2.848-4.5-1.04-.913-3.426-2.262-4.73-2.608-.402-.103-.966.177-.864-.493.03-.184.213-.369.271-.582.132-.501.147-.641.33-1.142.058-.162-.036-.736.285-.655z" fill="#2B8B43"/><path d="M45.013 17.172l1.72.741v.997c-.439.369-.805.973-1.274 1.297-1.105.758-3.155.78-4.231.037-.11-.074-.227-.346-.425-.413.22-.25.271-.61.417-.84.776-1.236 2.38-1.922 3.793-1.819zM9.243 4.423c.351.228 2.898-.103 2.899.243.073.471-.102 1.259 0 1.686v.008c.315 1.289 1.523 3.182 2.409 4.206.351.405 3.2 3.056 3.521 3.085.505.044.308-.993.352-1.295.35-2.262 1.661-4.31 3.089-6.055.212-.258.41-.98.878-.685l1.53 1.893c-.307.442-.695.825-1.01 1.267-1.34 1.908-2.262 4.14-1.786 6.526.044.22-.044.479.022.714l1.34 1.281c-.344.39-.762.715-1.098 1.098-.242.273-.535 1.075-1.018.936-.27-.081-1.544-1.355-1.889-1.628-2.935-2.313-6.881-5.09-8.492-8.566-.073-.155.088-.317.051-.457-.036-.132-.27-.118-.307-.243-.095-.368-.213-.774-.3-1.15-.089-.354-.476-2.518-.418-2.71l.227-.154zM3.723 15.235c.183-.007 1.545.273 1.757.347.264.095.55.42.74.567v.007c.607.457 1.032.759 1.31 1.488.139.368.176.707-.205.906-.066.037-.93.36-.988.368-.25.044-1.398.11-1.676.096-.3-.008-1.706-.884-1.97-1.157-.087-.088-.754-.941-.776-1.001-.073-.206-.022-.575-.132-.81.264-.074.52-.398.71-.464.118-.037 1.164-.346 1.23-.347zM46.74 17.916l-.007-.003v-.004l.007.007z" fill="#2B8B43"/><path d="M16.952 2.56c.637-.2.856.5 1.098.964h-.007c.139.273.542 1.046.586 1.356.146 1.023-.55 2.585-1.296 3.284-.49.464-.93.737-1.428.089a25.765 25.765 0 01-.71-1.282c-.051-.192-.059-2.12 0-2.283.044-.133.242-.14.27-.192.067-.118 0-.331.081-.5.132-.266 1.143-1.356 1.406-1.437zM30.342 1.838c.227-.28.352-.708.82-.56h-.007l1.325 1.45c-.044.516.219.487.314.627s.095 2.18.037 2.453c-.06.273-1.01 1.767-1.281 1.767-.374-.22-.879-.508-1.15-.854-.63-.81-1.01-2.165-.87-3.182.102-.714.416-1.215.812-1.701z" fill="#2B8B43"/><path d="M81.544 16.803c.124 0 .161.037.234.14v14.311l.014-.007c.103.817.681 1.606 1.523 1.724 2.116.294 3.456-1.702 3.602-3.617.19-2.387.19-6.658-.015-9.037-.117-1.326-.46-2.46-1.976-2.535l-.103-.581c1.354-.067 2.79.088 4.137 0 .856-.052 1.727-.376 2.554-.317v14.26c0 .338.345 1.355.58 1.628.54.618 1.91.346 1.44 1.17-2.195 0-4.391-.102-6.558.303l-.154-.229.08-2.18c-.256-.25-.82.877-.988 1.054-2.174 2.29-7.716 2.341-8.58-1.37-.864-3.713.198-8.287-.285-11.918-.088-.633-.403-1.34-1.026-1.598-.402-.17-.958-.015-1.039-.634.095-.154.205-.147.359-.17 1.222-.14 2.694.111 3.975 0 .608-.05 1.743-.412 2.226-.397z" fill="#000"/><path fill-rule="evenodd" clip-rule="evenodd" d="M206.957 16.7c6.918-.552 9.341 4.243 8.792 10.533-.468 5.384-4.349 7.873-9.525 7.085-5.175-.788-6.72-5.487-6.237-10.319.425-4.257 2.577-6.945 6.97-7.292V16.7zm.725.619l.007.007c-.527.052-1.186.612-1.501 1.024-1.816 2.401-1.699 10.592-.593 13.331 1.105 2.74 3.448 2.762 4.546-.095 1.098-2.858 1.069-9.914-.22-12.573-.402-.825-1.251-1.797-2.239-1.694zM150.989 16.663c4.085-.272 6.479 1.989 6.742 6.047.022.36.095.95-.154 1.208h-8.784l-.154.155v2.63l-.014.014.131.92c.652 3.75 4.473 5.599 7.409 2.763.432-.42.973-1.886 1.456-.847-.988 2.666-3.06 4.743-6.01 4.89-4.326.214-7.203-2.482-7.774-6.695-.718-5.266 1.207-10.687 7.152-11.085zm2.65 5.009c-.102-1.488-.659-5.03-2.899-4.184-1.164.442-1.815 2.666-1.991 3.786-.051.331-.278 1.93.022 2.026h4.714c.249-.368.191-1.157.154-1.628zM130.081 8.576c.541.015.358.258.358.479v10.141l.388-.014c1.267-2.313 4.459-3.115 6.816-2.033 4.737 2.173 4.568 11.6 1.515 15.1-1.808 2.076-5.358 2.769-7.862 1.7-.534-.227-.747-.603-1.332-.654a5.486 5.486 0 00-2.46.375c-.388.154-1.501 1.046-1.786.611-.154-.236.109-1.178.116-1.554.249-6.923-.197-14.002 0-20.94-.095-.714-.307-1.68-1.002-2.04-.301-.155-1.091-.074-1.091-.486 0-.655 1.427-.265 1.83-.258.776.015 1.94-.051 2.731-.103.512-.037 1.398-.339 1.779-.324zm3.352 9.494c-1.647.037-2.883 1.745-3.008 3.285-.293 3.572.205 7.527 0 11.144.564 1.34 2.884 1.561 3.968.744 2.393-1.805 2.196-8.927 1.75-11.652-.249-1.495-.857-3.565-2.716-3.528l.006.007z" fill="#000"/><path d="M251.98 22.386c-1.091-4.942 4.444-6.643 8.236-5.23.388.148 1.449.818 1.727.79.513-.053.535-.951.711-1.135l-.008-.008c.213-.228.681-.125.696.228 0 .133-.095.34-.103.53-.014 1.032-.059 2.034-.102 3.05-.015.376.285 2.29-.52 1.797-.168-.103-.513-1.848-.681-2.26-.286-.708-.813-1.577-1.42-2.04-1.728-1.334-4.664-.833-4.386 1.782.323 3.02 7.417 4.831 7.841 9.051.476 4.714-5.066 6.445-8.748 5.016-.432-.17-1.655-.928-1.984-.95-.688-.044-.608 1.524-1.405 1.2-.279-.198-.001-1.354.014-1.686.044-1.561-.081-3.145.044-4.692.102-.147.534-.154.644 0 .271 1.827.835 4.441 2.57 5.414 1.589.89 3.975.508 4.07-1.672.168-3.757-6.377-5.488-7.196-9.185zM187.264 17.09c.329-.036 1.756-.037 1.976.103l4.202 12.006.256-.265c.454-2.107 1.392-4.095 1.919-6.172.381-1.525.827-3.75-.901-4.626-.359-.184-1.691-.317-1.281-.935.154-.228.359 0 .425 0h5.227c.739.22-.57.927-.674 1.009-.761.633-1.076 1.451-1.42 2.357-.893 2.357-1.545 5.03-2.321 7.446a190.116 190.116 0 01-2.02 5.967c-.491.022-1.867.235-2.138-.162L186.4 22.593l-.337-.347-3.368 11.498c-.132.456-1.925.338-2.13.191-.124-.089-.234-.383-.307-.537-1.97-4.412-3.126-9.7-5.023-14.2-.197-.274-.329-.672-.571-.9-.468-.441-1.324-.258-1.156-1.097h8.785l-.095.589c-.813.147-2.079-.059-1.889 1.15l2.818 9.162.374.36 3.411-11.195c.074-.162.198-.154.352-.176z" fill="#000"/><path d="M167.051 18.32c.871-1.067 2.526-1.782 3.902-1.642 3.316.34 3.433 5.716-.008 5.775-2.833.051-3.059-3.19-1.09-4.567.014-.434-1.383.14-1.552.221-1.113.553-1.743 1.827-2.058 2.983l-.021 10.554c.256.899.703 1.223 1.566 1.474.367.103 1.735.133 1.391.707l-9.576.162c-.197-.133-.285-.368-.168-.59 1.545-.294 1.94-.67 2.05-2.246.212-3.027.212-7.815 0-10.85-.052-.736-.205-1.848-.915-2.231-.425-.228-1.31-.088-1.164-.685.11-.45 1.135-.118 1.515-.118.798 0 1.816 0 2.599-.059.542-.037 2.13-.42 2.489-.302.073.023.124.081.176.14v2.364h.007c.161.184.755-.964.857-1.09zM102.035 19.197c1.691-3.182 8.155-3.756 9.048.317.285.191.74-.759.945-.994 1.888-2.232 7.013-2.777 8.484.08 1.077 2.092.315 9.42.498 12.227.103 1.51.337 2.475 2.079 2.482.169.376.22.567-.241.619-1.486.176-3.536-.14-5.132-.118-.454 0-2.62.302-2.826.015v-.435c1.12-.257 1.42-.707 1.523-1.834.337-3.639-.249-7.778 0-11.468-.703-3.925-5.052-1.385-5.125 1.473.19 3.16-.271 6.644.015 9.774.058.656.168 1.392.797 1.724.425.22 1.318.125 1.084.795l-8.053.06c-.278-.715.44-.59.82-.789.483-.25.623-.987.732-1.473-.175-3.668.271-7.616.015-11.254-.293-4.22-4.715-1.967-4.913.964.227 3.285-.344 7.064 0 10.29.103.972.506 1.598 1.509 1.738v.435l-8.17.11c-.425-.773.16-.56.585-.685.805-.236 1.23-.493 1.34-1.384-.198-3.867.3-8.058.015-11.88-.095-1.312-.542-2.012-1.889-2.204-.322-.876.08-.589.57-.574 1.926.044 3.91.089 5.777-.405l.242.14v2.107l.007-.008.264.155zM238.67 8.575v15.83c.001.037.118.17.118.25l.139.014c.256-.073.542-.073.791-.162.674-.244 3.975-3.528 4.275-4.22.446-1.038-.022-1.797-1.003-2.217-.337-.14-1.091-.228-1.238-.339-.256-.191-.117-.589.132-.619.095-.007.161.088.19.089h7.007l.161.265c.044.45-1.061.64-1.472.84-.71.346-1.647 1.097-2.247 1.627-.344.302-2.343 2.313-2.35 2.579l5.373 9.118c.264.346.549.847.849 1.149.366.368 1.055.464.777 1.141h-7.505l-.029-.47.857-.436.014-.743c-1.2-1.827-2.064-4.192-3.265-5.974-.307-.457-.805-.906-1.398-.898-.139.03-.168.456-.176.582-.08 1.141-.153 5.398.139 6.29.198.604.557.802 1.121.979.388.125.915-.103.695.582l-8.587.11c-.491-.765.22-.566.666-.714.937-.309 1.171-.663 1.274-1.665-.308-6.444.41-13.28 0-19.68-.059-.891-.249-1.826-1.157-2.202-.425-.177-1.501-.184-.681-.788 1.333-.074 2.76.095 4.085 0 .825-.06 1.621-.367 2.445-.318z" fill="#000"/><path d="M224.753 19.403c.901-1.878 3.229-3.285 5.301-2.541 3.001 1.068 2.196 6.438-1.56 5.465-1.449-.375-1.778-1.686-1.391-3.02l1.098-1.576c-2.049-.051-3.506 2.063-3.66 3.94-.263 3.11.183 6.615.029 9.768.242 1.583 1.589 1.73 2.907 1.914l.102.582-9.655-.015-.162-.154.037-.368c1.171-.25 1.881-.398 2.035-1.739.417-3.69-.293-8.116.015-11.888-.154-1.134-.74-1.98-1.977-1.959l-.117-.442c.066-.177.205-.162.352-.177 1.207-.14 2.693.118 3.974 0 .688-.059 1.442-.228 2.116-.397.11-.03.344.205.344.243 0 .633-.007 1.26 0 1.893h.008c0 .155-.205.53.204.47zM55.98 10.999c.505-.287 1.01-.022 1.493-.007 2.357.058 4.868.051 7.225 0 .49-.015 1.603-.442 1.464.42-.944.427-2.02.051-2.438 1.23-.182.5-.087 1.046-.234 1.554.234 5.502-.307 11.262 0 16.734.03.48.096 1.502.381 1.827.608.7 3.067.567 3.953.42 2.577-.428 4.122-2.91 4.825-5.245.102-.338.307-1.753.41-1.9.124-.17.592-.17.666.073.11 1.054-.103 2.1-.096 3.145 0 .907.067 2.012.11 2.94.015.39.228 1.148.206 1.487 0 .096-.088.25-.154.25H55.965l.095-.589c1.727-.08 2.204-.486 2.313-2.194.374-5.812-.278-12.028-.014-17.883-.176-1.518-1.018-1.562-2.336-1.739l-.043-.523zM238.678 8.576h-.008v-.007l.008.007z" fill="#000"/></svg>