<svg preserveAspectRatio="none" width="100%" height="100%" overflow="visible" style="display: block;" viewBox="0 0 46.7401 39.8849" fill="none" xmlns="http://www.w3.org/2000/svg">
<g id="icon">
<path d="M26.3005 21.7685C26.3591 21.8347 26.4983 21.8419 26.5423 21.8934L26.5497 21.9008C26.6448 22.0112 26.6225 22.2102 26.6956 22.3354C28.5331 25.3773 28.6944 29.3988 27.589 32.8458C27.4646 33.2287 27.1208 33.7886 27.0109 34.0464C26.1983 36.0498 25.349 37.5232 23.7824 39.173C23.6726 39.2909 23.6137 39.6368 23.255 39.74C20.9197 40.1082 18.5479 39.6298 16.2199 39.8655C16.1613 39.6298 16.4321 39.5635 16.5859 39.4531C17.435 38.8418 18.4818 38.3407 19.3748 37.6558C21.4906 36.0207 23.9652 33.3984 24.873 30.8426C25.2024 29.9072 25.4003 27.2187 25.2099 26.2391C25.1586 25.9665 24.6901 25.083 24.6022 24.7442C24.5583 24.5453 24.5653 24.3389 24.5799 24.1327L26.3005 21.7685Z" fill="var(--fill-0, #2B8B43)"/>
<path d="M29.8147 39.659L29.7634 39.8729C29.6682 39.8655 29.5874 39.7622 29.5581 39.7622C28.2552 39.7622 26.8717 39.696 25.5834 39.7622C25.5834 39.7622 25.4733 39.8582 25.3781 39.8729L25.3268 39.659C25.4073 39.659 25.4808 39.6443 25.5321 39.578C25.7592 39.2831 27.0026 37.4873 27.1642 37.4493L29.8147 39.659Z" fill="var(--fill-0, #2B8B43)"/>
<path d="M23.6872 0.00344501C23.8344 0.0337535 25.6271 1.7859 25.8467 2.04369C28.3797 5.01193 28.7166 8.40006 28.6654 12.1417C28.6654 12.4731 28.5408 13.9314 28.9213 13.8728C29.2214 13.6666 29.4996 13.4309 29.785 13.21H29.7782C31.7548 11.6854 33.9873 9.49014 34.6754 7.14059C35.1805 6.41885 34.9099 5.17432 35.3636 4.45983L38.0795 4.51856C37.8893 5.12243 38.0432 5.75581 37.9627 6.35231C36.8499 14.8594 25.2316 17.5334 22.4717 25.1714C21.7397 27.2041 21.5492 29.1044 22.1347 31.2402C22.2153 31.5422 22.1642 31.8297 22.3765 32.1243L20.2021 34.7537C20.1727 34.8567 19.9972 34.8494 19.9387 34.8273C19.8141 34.7677 19.3018 33.0963 19.0676 32.8606C18.2623 28.4562 19.1994 23.3817 22.0105 19.9273C22.6913 19.0951 25.2098 17.0544 25.4733 16.3031C25.5831 16.0012 25.4878 15.7211 25.5537 15.4339C26.4687 11.4861 26.4468 7.00086 23.804 3.78222C23.4307 3.32557 22.7132 2.57421 22.1861 2.41217C21.9813 2.1837 23.3648 0.511477 23.438 0.15059C23.5039 0.0695962 23.5701 -0.0186426 23.6872 0.00344501Z" fill="var(--fill-0, #2B8B43)"/>
<path d="M40.7955 9.71129C41.2421 9.48296 41.5866 9.84373 41.9307 9.94685C42.1942 10.0205 42.443 10.0279 42.7505 10.1237L42.743 10.1385C42.7439 10.1426 42.774 10.2787 42.8605 10.3005C42.9928 10.3372 43.607 10.3006 43.6216 10.4699C43.5338 10.6835 43.5335 10.9266 43.4676 11.1475C43.1016 12.2891 42.5235 13.5411 42.011 14.5207C40.8836 16.7156 39.4123 18.7046 37.5528 20.3471L37.4576 20.715C37.7724 20.7739 37.9773 21.0026 38.2848 21.0983C39.3389 21.415 40.254 21.6578 41.2129 22.1512C42.7283 22.9246 44.8296 24.4936 46.0229 25.8342C46.1034 25.9225 46.2133 25.9448 46.089 26.092C45.6205 26.3498 44.7197 27.5578 44.361 27.7198C44.0317 27.867 43.7828 27.3591 43.5486 27.1381C40.9352 24.7664 38.973 23.7721 35.5323 23.2344C35.1517 23.1755 34.6538 22.9397 34.2439 22.9543C33.9803 22.9691 33.7383 23.315 33.5187 23.4329C32.4426 24.0147 31.3663 24.4198 30.2463 24.8765C30.0998 24.9356 29.7196 25.3624 29.5 25.1936L28.7167 22.8214L28.4601 22.5568C28.4601 22.3211 30.5979 21.5693 30.9566 21.3852C35.3784 19.1093 38.6364 15.4709 40.4153 10.8013C40.547 10.4625 40.4737 10.0574 40.7955 9.71129Z" fill="var(--fill-0, #2B8B43)"/>
<path d="M3.81831 9.68162C3.86955 9.69635 3.98698 9.91018 4.16268 9.9691C6.01472 10.6393 7.74222 11.155 9.38199 12.3482V12.3407C10.7217 13.3203 12.2225 15.0587 13.0204 16.5245C13.7159 17.8134 14.2069 19.4703 14.346 20.9728C14.3606 21.1643 14.4552 21.8421 14.5358 21.9453L18.1965 23.5213L18.2917 23.8088C17.8964 24.1475 17.9619 24.5156 17.8595 24.9501C17.8302 25.0605 17.7132 25.1638 17.6839 25.3037C17.6254 25.5983 17.8086 25.9816 17.5232 26.1952C17.3328 26.2541 16.5052 25.635 16.2928 25.5392C13.4158 24.2283 9.06002 23.1239 5.7145 23.5732C4.85064 23.691 3.44481 23.993 2.61024 24.2434C2.38998 24.31 1.00691 24.8989 0.948365 24.8326C1.03621 24.4791 0.773171 24.3536 0.66335 24.1179C0.502292 23.7717 0.399343 23.2783 0.260247 22.9395C0.194289 22.7775 -0.127387 22.6962 0.0556047 22.409C0.172695 22.3353 0.311967 22.1954 0.429031 22.1512C2.31791 21.4368 6.37332 20.5605 8.42307 20.7298C8.93553 20.774 11.315 21.4221 11.5712 21.0538C11.7907 20.4648 11.5198 20.126 11.3734 19.6621C10.8024 17.8797 9.97513 16.4213 8.5257 15.1618C7.48621 14.2486 5.09983 12.9003 3.79667 12.554C3.39402 12.4509 2.82986 12.7309 2.93235 12.0607C2.96166 11.8766 3.14457 11.6924 3.20314 11.4789C3.33492 10.978 3.34965 10.8378 3.53267 10.337C3.59109 10.1747 3.49638 9.6007 3.81831 9.68162Z" fill="var(--fill-0, #2B8B43)"/>
<path d="M45.0127 17.1724L46.7333 17.9131V18.9103C46.294 19.2786 45.9276 19.8827 45.459 20.2068C44.3536 20.9654 42.3039 20.9878 41.2277 20.2439C41.1179 20.1702 41.0006 19.8978 40.803 19.8315C41.0225 19.5812 41.074 19.2203 41.2203 18.9919C41.9963 17.7545 43.5997 17.0693 45.0127 17.1724Z" fill="var(--fill-0, #2B8B43)"/>
<path d="M9.24288 4.42274C9.59423 4.65103 12.1411 4.31978 12.1419 4.66571C12.2151 5.137 12.0395 5.92505 12.1419 6.35231V6.35973C12.4567 7.64868 13.6648 9.54193 14.5506 10.5657C14.9022 10.971 17.7501 13.622 18.0722 13.6514C18.577 13.6954 18.3795 12.6578 18.4234 12.3556C18.7748 10.0944 20.0852 8.0466 21.5128 6.301C21.7251 6.0432 21.9228 5.32135 22.3913 5.61597L23.9215 7.50907C23.614 7.95097 23.2261 8.33397 22.9113 8.77587C21.5716 10.6835 20.6487 12.9152 21.1245 15.3016C21.1684 15.5225 21.0809 15.7806 21.1468 16.0163L22.4865 17.2973C22.1424 17.6877 21.7253 18.0123 21.3885 18.3953C21.147 18.6678 20.8539 19.4704 20.3709 19.3307C20.1 19.2497 18.8264 17.9757 18.4821 17.7029C15.5465 15.3902 11.6004 12.6133 9.98973 9.13693C9.91653 8.98227 10.0776 8.81998 10.041 8.68004C10.0045 8.54752 9.77052 8.56212 9.73378 8.43707C9.6386 8.0688 9.52115 7.66337 9.4333 7.28773C9.34534 6.93346 8.95743 4.76876 9.01598 4.5773L9.24288 4.42274Z" fill="var(--fill-0, #2B8B43)"/>
<path d="M3.7231 15.2354C3.90612 15.228 5.26787 15.508 5.48018 15.5816C5.74371 15.6774 6.02929 16.0013 6.21961 16.1486V16.156C6.82712 16.6126 7.25151 16.9146 7.52969 17.6435C7.66879 18.0118 7.70573 18.351 7.32505 18.5499C7.25893 18.5868 6.39502 18.9104 6.33646 18.9177C6.08722 18.9619 4.93874 19.0283 4.66037 19.0136C4.36029 19.0062 2.95524 18.1302 2.69123 17.8574C2.60342 17.7691 1.93734 16.9156 1.9147 16.8559C1.84149 16.6496 1.89282 16.281 1.78301 16.0453C2.04656 15.9717 2.30304 15.6479 2.49339 15.5816C2.61079 15.5447 3.65663 15.2356 3.7231 15.2354Z" fill="var(--fill-0, #2B8B43)"/>
<path d="M46.7401 17.9162L46.7333 17.9131V17.9087L46.7401 17.9162Z" fill="var(--fill-0, #2B8B43)"/>
<path d="M16.9519 2.55931C17.5888 2.36047 17.8083 3.06039 18.0499 3.52441H18.0425C18.1816 3.797 18.5847 4.57031 18.6286 4.87963C18.7749 5.90337 18.0794 7.4647 17.3328 8.16442C16.8423 8.62842 16.403 8.90087 15.9052 8.25283C15.8393 8.16444 15.2168 7.03747 15.1948 6.97118C15.1436 6.77928 15.1363 4.85018 15.1948 4.68797C15.2387 4.55539 15.4363 4.54787 15.4656 4.49631C15.5315 4.37846 15.4655 4.16489 15.546 3.99552C15.6778 3.73036 16.6884 2.64033 16.9519 2.55931Z" fill="var(--fill-0, #2B8B43)"/>
<path d="M30.3415 1.83781C30.5684 1.55792 30.6934 1.13036 31.1619 1.27767H31.1545L32.4794 2.72872C32.4355 3.2443 32.6989 3.21506 32.7941 3.35501C32.8892 3.49585 32.8891 5.53517 32.8306 5.80763C32.7716 6.08058 31.8204 7.57522 31.5495 7.57522C31.1762 7.35426 30.6711 7.06695 30.4002 6.72079C29.7707 5.91067 29.3901 4.55563 29.5291 3.53925C29.6315 2.82493 29.9462 2.32384 30.3415 1.83781Z" fill="var(--fill-0, #2B8B43)"/>
</g>
</svg>
