<svg preserveAspectRatio="none" width="100%" height="100%" overflow="visible" style="display: block;" viewBox="0 0 208.035 25.9143" fill="none" xmlns="http://www.w3.org/2000/svg">
<g id="textblack">
<path d="M25.5791 8.23454C25.7033 8.23459 25.7402 8.27123 25.8134 8.37427V22.6856L25.8276 22.6782C25.9301 23.4958 26.5085 24.284 27.3504 24.4019C29.4661 24.6965 30.8059 22.7001 30.9523 20.7851C31.1427 18.3988 31.1425 14.1271 30.9375 11.7481C30.8204 10.4223 30.4763 9.28751 28.9609 9.21386L28.8583 8.63208C30.2127 8.56579 31.648 8.72047 32.9951 8.63208C33.8515 8.58049 34.7225 8.25667 35.5497 8.31553V22.575C35.5497 22.9138 35.8941 23.9303 36.1284 24.2028C36.6702 24.8214 38.0386 24.5489 37.5701 25.3738C35.374 25.3738 33.1779 25.2711 31.0111 25.6761L30.8571 25.4474L30.9375 23.2674C30.6812 23.0174 30.1179 24.1442 29.9495 24.3209C27.7752 26.6115 22.2333 26.6629 21.3694 22.9509C20.5055 19.2387 21.5669 14.6645 21.0837 11.0334C20.9959 10.4 20.6809 9.69298 20.0587 9.43519C19.656 9.26594 19.0999 9.42007 19.0194 8.80148C19.1145 8.647 19.2244 8.65415 19.378 8.63208C20.6006 8.49214 22.0722 8.74256 23.3534 8.63208C23.961 8.58051 25.0959 8.21981 25.5791 8.23454Z" fill="var(--fill-0, black)"/>
<path fill-rule="evenodd" clip-rule="evenodd" d="M150.992 8.13129C157.91 7.57903 160.333 12.374 159.784 18.6639C159.316 24.048 155.435 26.5378 150.26 25.7497C145.084 24.9615 143.539 20.2621 144.023 15.4304C144.447 11.1733 146.6 8.48488 150.992 8.13871V8.13129ZM151.717 8.75017L151.724 8.75759C151.197 8.80915 150.538 9.36895 150.223 9.78142C148.408 12.1828 148.525 20.373 149.63 23.1129C150.736 25.8527 153.078 25.8747 154.176 23.017C155.274 20.1592 155.245 13.1031 153.957 10.4442C153.554 9.61929 152.705 8.64712 151.717 8.75017Z" fill="var(--fill-0, black)"/>
<path fill-rule="evenodd" clip-rule="evenodd" d="M95.024 8.09482C99.1089 7.8223 101.503 10.0832 101.767 14.1414C101.789 14.5023 101.862 15.0916 101.613 15.3494H92.8279L92.674 15.504V18.1334L92.6598 18.1483L92.7915 19.0688C93.443 22.8178 97.2644 24.6669 100.2 21.8312C100.632 21.4114 101.173 19.9458 101.657 20.9842C100.668 23.6504 98.5968 25.7273 95.6466 25.8746C91.32 26.0882 88.443 23.3925 87.872 19.1795C87.1546 13.9133 89.0797 8.49268 95.024 8.09482ZM97.6745 13.1033C97.572 11.6155 97.0155 8.07271 94.7755 8.91957C93.6115 9.36147 92.9598 11.5855 92.7841 12.7051C92.7328 13.0366 92.5062 14.6354 92.8063 14.7312H97.5205C97.7694 14.3629 97.7111 13.5747 97.6745 13.1033Z" fill="var(--fill-0, black)"/>
<path fill-rule="evenodd" clip-rule="evenodd" d="M74.1158 0.00741906C74.6574 0.0221463 74.4745 0.26503 74.4744 0.485949V10.6278L74.8627 10.6136C76.1292 8.30085 79.321 7.49805 81.6783 8.58077C86.4149 10.7536 86.2465 20.1812 83.1937 23.6798C81.3855 25.7568 77.835 26.4492 75.3313 25.3812C74.797 25.1529 74.5845 24.7775 73.999 24.7259C73.1791 24.6522 72.293 24.7992 71.5389 25.1012C71.1509 25.2558 70.0383 26.1472 69.7528 25.7126C69.5991 25.4769 69.8623 24.5339 69.8697 24.1583C70.1185 17.2349 69.672 10.1568 69.8697 3.21864C69.7745 2.5042 69.5623 1.53929 68.8668 1.17839C68.5667 1.02378 67.7764 1.10477 67.7762 0.692446C67.7762 0.0369377 69.2036 0.42725 69.6063 0.434634C70.3823 0.449364 71.5465 0.382943 72.3371 0.331385C72.8495 0.294515 73.7351 -0.00725731 74.1158 0.00741906ZM77.4686 9.50135C75.8217 9.53833 74.5848 11.2469 74.4602 12.7861C74.1674 16.3583 74.6652 20.3138 74.4602 23.9302C75.0239 25.2707 77.3447 25.4915 78.4282 24.674C80.8217 22.8691 80.6243 15.7476 80.1778 13.0223C79.9289 11.5272 79.3211 9.45732 77.4618 9.49393L77.4686 9.50135Z" fill="var(--fill-0, black)"/>
<path d="M196.015 13.8174C194.924 8.87535 200.459 7.17404 204.251 8.58819C204.639 8.73565 205.7 9.40576 205.979 9.37646C206.491 9.3249 206.513 8.4261 206.689 8.24196L206.682 8.23454C206.894 8.00632 207.362 8.10933 207.377 8.46268C207.377 8.59524 207.282 8.80166 207.274 8.99314C207.26 10.0243 207.216 11.026 207.172 12.0424C207.157 12.418 207.457 14.3327 206.652 13.8396C206.484 13.7365 206.14 11.9914 205.971 11.5787C205.686 10.8716 205.159 10.0025 204.551 9.53844C202.823 8.2053 199.888 8.70614 200.166 11.3209C200.488 14.3406 207.582 16.1525 208.006 20.3728C208.482 25.0866 202.941 26.8175 199.258 25.3887C198.826 25.2193 197.604 24.4605 197.274 24.4384C196.586 24.3943 196.667 25.9627 195.869 25.639C195.591 25.4402 195.868 24.284 195.883 23.9524C195.927 22.391 195.803 20.8073 195.927 19.2605C196.029 19.1133 196.461 19.106 196.571 19.2605C196.842 21.0871 197.406 23.7017 199.141 24.674C200.73 25.5651 203.116 25.1823 203.211 23.0022C203.38 19.2459 196.835 17.5148 196.015 13.8174Z" fill="var(--fill-0, black)"/>
<path d="M131.299 8.52203C131.628 8.48521 133.055 8.48483 133.275 8.62466L137.478 20.6306L137.734 20.3653C138.188 18.2589 139.125 16.2703 139.652 14.1933C140.033 12.6686 140.479 10.444 138.751 9.5675C138.392 9.38342 137.06 9.25065 137.47 8.63208C137.624 8.40396 137.829 8.63208 137.895 8.63208H143.122C143.861 8.85295 142.552 9.55956 142.449 9.64107C141.687 10.2745 141.372 11.0925 141.028 11.9985C140.135 14.3554 139.483 17.0289 138.707 19.4447C138.063 21.4408 137.397 23.437 136.687 25.4109C136.196 25.433 134.82 25.6466 134.549 25.2489L130.435 14.0239L130.098 13.6777L126.731 25.1754C126.598 25.6317 124.805 25.5137 124.6 25.3664C124.476 25.2778 124.366 24.9837 124.293 24.8291C122.324 20.4173 121.167 15.1287 119.271 10.6284C119.073 10.3559 118.941 9.95781 118.699 9.72948C118.231 9.28791 117.375 9.47157 117.543 8.63208H126.328L126.233 9.22128C125.42 9.36859 124.154 9.16268 124.344 10.3706L127.163 19.5332L127.536 19.8942L130.948 8.69885C131.021 8.53683 131.145 8.54412 131.299 8.52203Z" fill="var(--fill-0, black)"/>
<path d="M111.086 9.75174C111.957 8.68383 113.612 7.96972 114.988 8.10966C118.304 8.44848 118.421 13.8252 114.981 13.8842C112.148 13.9356 111.921 10.6944 113.89 9.31711C113.904 8.883 112.507 9.45718 112.338 9.53844C111.225 10.0909 110.595 11.3652 110.281 12.5215L110.259 23.0758C110.515 23.9743 110.962 24.2986 111.826 24.5491C112.192 24.6521 113.56 24.6819 113.216 25.2563L103.641 25.4183C103.443 25.2858 103.355 25.05 103.472 24.8291C105.017 24.5345 105.412 24.1586 105.522 22.5824C105.734 19.5552 105.734 14.7678 105.522 11.7332C105.471 10.9967 105.317 9.88435 104.607 9.50135C104.182 9.27317 103.297 9.41283 103.443 8.81632C103.553 8.36726 104.578 8.69885 104.959 8.69885C105.757 8.69885 106.774 8.69841 107.557 8.6395C108.099 8.60268 109.687 8.22008 110.046 8.33779C110.119 8.35986 110.171 8.41866 110.222 8.47752V10.8417H110.229C110.39 11.0259 110.984 9.87695 111.086 9.75174Z" fill="var(--fill-0, black)"/>
<path d="M46.0699 10.6284C47.761 7.44659 54.2248 6.87203 55.1181 10.945C55.4036 11.1365 55.8578 10.1866 56.0628 9.95082C57.9515 7.71909 63.0762 7.17402 64.5477 10.0318C65.6238 12.1237 64.8624 19.4522 65.0454 22.2584C65.1479 23.7683 65.3823 24.7334 67.1246 24.7407C67.2929 25.1162 67.344 25.3074 66.8829 25.359C65.3968 25.5357 63.3472 25.2195 61.7513 25.2415C61.2976 25.2415 59.1312 25.5432 58.9253 25.2563V24.8217C60.0454 24.5639 60.3456 24.1143 60.4481 22.9874C60.7848 19.3489 60.1992 15.2094 60.4481 11.5193C59.7452 7.59382 55.3966 10.1349 55.3233 12.9926C55.5137 16.1524 55.0527 19.6363 55.3382 22.7666C55.3967 23.4221 55.5063 24.1589 56.1357 24.4903C56.5603 24.7113 57.4536 24.6153 57.2195 25.2854L49.1668 25.3448C48.8886 24.6303 49.6059 24.7554 49.9866 24.5565C50.4697 24.3061 50.6088 23.5693 50.7186 23.0832C50.5429 19.4153 50.9896 15.4675 50.7334 11.8291C50.4406 7.60878 46.0186 9.86221 45.8208 12.7936C46.0477 16.0785 45.4767 19.8571 45.8208 23.0832C45.9233 24.0554 46.3263 24.6818 47.3293 24.8217V25.2563L39.1591 25.3664C38.7346 24.5932 39.32 24.8065 39.7445 24.6814C40.5498 24.4457 40.9744 24.1881 41.0843 23.2971C40.8866 19.4303 41.3846 15.2393 41.0991 11.4167C41.004 10.1057 40.5573 9.40538 39.2104 9.21386C38.8885 8.33779 39.2907 8.62468 39.781 8.6395C41.7064 8.68369 43.6906 8.72803 45.5574 8.23454L45.7991 8.37427V10.4813L45.8065 10.4739L46.0699 10.6284Z" fill="var(--fill-0, black)"/>
<path d="M182.706 0.00680081V15.836C182.706 15.8732 182.823 16.0056 182.823 16.0864L182.962 16.1006C183.218 16.027 183.504 16.027 183.753 15.9386C184.427 15.6946 187.728 12.4107 188.028 11.7184C188.475 10.68 188.006 9.92119 187.025 9.50135C186.689 9.3614 185.934 9.27303 185.788 9.16254C185.532 8.97106 185.671 8.57338 185.919 8.54367C186.014 8.53632 186.08 8.63159 186.11 8.63208H193.116L193.277 8.89731C193.321 9.34653 192.216 9.53807 191.806 9.7369C191.096 10.083 190.159 10.8345 189.558 11.3648C189.214 11.6668 187.216 13.6777 187.208 13.9429L192.582 23.0609C192.845 23.4071 193.13 23.9083 193.43 24.2103C193.796 24.5785 194.485 24.6742 194.207 25.3516H186.703L186.674 24.8804L187.53 24.4458L187.545 23.7021C186.344 21.8754 185.48 19.5109 184.28 17.7285C183.972 17.2719 183.474 16.8228 182.881 16.8301C182.742 16.8601 182.713 17.2868 182.706 17.4119C182.625 18.5536 182.552 22.8108 182.845 23.7021C183.042 24.306 183.401 24.5046 183.965 24.6814C184.353 24.8066 184.88 24.5785 184.661 25.2632L176.073 25.3738C175.583 24.608 176.293 24.807 176.739 24.6597C177.676 24.3504 177.911 23.9964 178.013 22.9948C177.706 16.5501 178.423 9.71498 178.013 3.31447C177.954 2.42325 177.764 1.48788 176.856 1.11224C176.432 0.935503 175.356 0.927894 176.176 0.323966C177.508 0.250318 178.935 0.419685 180.26 0.323966C181.085 0.26522 181.881 -0.0424406 182.706 0.00680081Z" fill="var(--fill-0, black)"/>
<path d="M168.789 10.8343C169.689 8.95625 172.017 7.54955 174.089 8.29328C177.09 9.36127 176.285 14.7309 172.53 13.7587C171.08 13.383 170.751 12.0721 171.139 10.7391L172.237 9.16254C170.187 9.11119 168.73 11.2252 168.577 13.1033C168.313 16.2115 168.759 19.7175 168.606 22.8699C168.847 24.4532 170.194 24.6005 171.512 24.7846L171.615 25.3664L161.959 25.3516L161.797 25.197L161.834 24.8291C163.005 24.5787 163.715 24.4311 163.869 23.0906C164.286 19.4005 163.577 14.9739 163.884 11.2028C163.73 10.0686 163.145 9.22153 161.907 9.24354L161.79 8.80148C161.856 8.62487 161.995 8.63939 162.142 8.62466C163.35 8.4848 164.836 8.74246 166.117 8.62466C166.805 8.56574 167.559 8.39651 168.232 8.22712C168.342 8.1977 168.576 8.43277 168.577 8.4701C168.577 9.10353 168.569 9.72977 168.577 10.3632H168.584C168.584 10.5179 168.379 10.8931 168.789 10.8343Z" fill="var(--fill-0, black)"/>
<path d="M0.0148381 2.43036C0.519841 2.14342 1.02488 2.40819 1.50792 2.42294C3.86518 2.48186 6.37622 2.4745 8.73348 2.42294C9.22397 2.40821 10.3366 1.9816 10.1975 2.84336C9.25321 3.27029 8.17696 2.89475 7.75972 4.07307C7.57673 4.5739 7.67181 5.11917 7.5254 5.62736C7.75965 11.1293 7.21793 16.8892 7.5254 22.3617C7.55469 22.8405 7.62087 23.8638 7.90625 24.188C8.51382 24.8877 10.9734 24.7551 11.8594 24.6078C14.4363 24.1806 15.9814 21.6986 16.6842 19.3638C16.7867 19.0249 16.9917 17.6105 17.0941 17.4632C17.2188 17.2941 17.6865 17.2942 17.76 17.5368C17.8698 18.59 17.6575 19.6361 17.6648 20.6819C17.6648 21.5878 17.7309 22.693 17.7748 23.6211C17.7895 24.0114 18.002 24.7697 17.9801 25.1086C17.9801 25.2043 17.892 25.3589 17.8262 25.359H0L0.0952113 24.7698C1.82281 24.6887 2.29891 24.2837 2.40872 22.575C2.78207 16.7637 2.13036 10.5474 2.39388 4.69194C2.2182 3.17475 1.37634 3.13015 0.0587343 2.95341L0.0148381 2.43036Z" fill="var(--fill-0, black)"/>
<path d="M182.713 0.00741906C182.711 0.00726475 182.708 0.00694867 182.706 0.00680081V0L182.713 0.00741906Z" fill="var(--fill-0, black)"/>
</g>
</svg>
